<?xml version="1.0" standalone="no"?>
<!DOCTYPE svg PUBLIC "-//W3C//DTD SVG 20010904//EN"
 "http://www.w3.org/TR/2001/REC-SVG-20010904/DTD/svg10.dtd">
<svg version="1.0" xmlns="http://www.w3.org/2000/svg"
 width="394.000000pt" height="769.000000pt" viewBox="0 0 394.000000 769.000000"
 preserveAspectRatio="xMidYMid meet">

<g transform="translate(0.000000,769.000000) scale(0.100000,-0.100000)"
fill="#000000" stroke="none">
<path d="M217 7529 c-37 -22 -47 -71 -47 -226 0 -220 41 -425 123 -620 147
-348 466 -708 838 -945 137 -88 405 -226 579 -298 69 -29 145 -63 170 -75 60
-30 148 -110 156 -141 6 -24 8 -24 123 -24 l117 0 23 55 c31 75 84 127 152
148 30 9 122 26 204 36 270 35 480 136 619 296 58 68 156 221 156 246 0 32
-13 51 -43 64 -48 20 -76 3 -127 -77 -68 -106 -130 -169 -230 -236 -70 -47
-108 -64 -162 -77 -39 -9 -72 -14 -74 -13 -1 2 20 30 47 63 31 37 78 119 125
215 81 165 87 198 47 242 -25 28 -83 21 -99 -12 -7 -14 -37 -77 -67 -140 -88
-183 -179 -273 -401 -394 -131 -72 -212 -140 -247 -208 -11 -21 -24 -38 -29
-38 -23 0 -103 191 -125 296 -18 89 -19 277 -1 359 14 68 26 94 67 147 40 50
46 87 19 121 -32 41 -79 37 -119 -8 -123 -140 -169 -483 -96 -712 l7 -22 -58
18 c-76 23 -213 92 -275 136 -104 77 -222 235 -270 362 -54 145 -62 199 -57
386 5 188 4 184 88 336 36 65 38 100 5 135 -50 54 -94 23 -155 -108 -22 -45
-51 -129 -66 -185 -24 -94 -26 -115 -22 -254 5 -175 30 -299 83 -410 17 -37
27 -66 20 -64 -30 12 -152 105 -220 169 -126 117 -216 269 -271 453 -23 77
-27 114 -32 259 -8 280 23 432 113 566 19 29 35 63 35 77 0 27 -49 83 -73 83
-33 0 -72 -48 -118 -144 -55 -118 -96 -272 -109 -408 -8 -98 1 -303 19 -386
30 -148 -136 163 -193 362 -39 132 -48 205 -48 385 l0 164 -28 29 c-31 30 -45
33 -73 17z"/>
<path d="M763 5224 c6 -148 34 -249 101 -369 43 -77 160 -201 240 -254 117
-78 318 -149 481 -170 50 -7 93 -15 96 -19 4 -4 4 -24 2 -44 l-5 -38 -57 7
c-31 3 -62 7 -69 7 -32 2 -128 -356 -153 -569 -17 -143 -18 -606 -1 -749 23
-194 81 -437 82 -344 0 52 50 212 92 297 44 91 100 181 183 296 71 100 70 99
175 204 111 112 253 227 362 295 88 53 244 129 258 124 5 -2 -8 -26 -30 -55
-92 -120 -102 -217 -44 -464 32 -135 37 -174 41 -324 5 -159 3 -177 -22 -280
-52 -217 -168 -406 -347 -567 -139 -125 -243 -189 -638 -391 -393 -200 -460
-241 -720 -438 -319 -242 -552 -587 -609 -903 -12 -66 -15 -247 -5 -320 l7
-47 67 138 c72 149 80 161 186 303 110 146 277 298 419 382 28 16 79 47 115
69 88 54 301 161 402 203 274 113 614 203 1128 300 306 58 434 88 579 138 211
72 290 122 407 255 96 109 124 168 131 271 12 175 -71 366 -251 576 -52 60
-355 324 -436 379 -101 68 -231 170 -265 209 -61 67 -88 139 -93 243 -3 80 -1
97 22 147 43 96 97 139 230 185 107 36 224 45 406 31 136 -10 162 -9 210 5
110 32 179 99 259 252 42 81 42 126 -1 169 -35 35 -56 43 -238 101 -273 87
-381 147 -620 348 -144 121 -253 174 -440 212 -103 22 -363 25 -490 6 -69 -10
-223 -54 -239 -68 -3 -2 6 -24 19 -49 28 -57 55 -217 46 -268 -9 -48 -44 -64
-86 -40 -25 15 -29 25 -35 83 -18 172 -114 340 -258 456 -149 119 -326 190
-506 202 l-94 6 6 -129z m1725 -569 c20 -9 47 -26 61 -38 22 -21 71 -91 71
-102 0 -15 -144 -3 -197 17 -59 22 -158 92 -158 112 0 25 169 33 223 11z"/>
</g>
</svg>
